<svg width="246.336669921875px" height="128px" xmlns="http://www.w3.org/2000/svg" viewBox="126.8316650390625 11 246.336669921875 128" style="background: none;" preserveAspectRatio="xMidYMid"><defs><linearGradient id="editing-glowing-gradient" x1="0.9890738003669028" x2="0.010926199633097156" y1="0.6039558454088796" y2="0.39604415459112047"><stop offset="0" stop-color="#297658"></stop><stop offset="1" stop-color="#101010"></stop></linearGradient><filter id="editing-glowing" x="-100%" y="-100%" width="300%" height="300%"><feGaussianBlur in="SourceGraphic" result="blur" stdDeviation="1"></feGaussianBlur><feMerge><feMergeNode in="blur"></feMergeNode><feMergeNode in="SourceGraphic"></feMergeNode></feMerge></filter></defs><g filter="url(#editing-glowing)"><g transform="translate(169.12169313430786, 99.51000022888184)"><path d="M52.03-33.79L52.03-33.79L52.03-33.79Q52.03-36.74 46.72-36.74L46.72-36.74L46.72-36.74Q40.13-36.74 28.80-32.03L28.80-32.03L28.80-32.03Q17.47-27.33 11.07-21.44L11.07-21.44L11.07-21.44Q7.17-17.79 5.06-14.37L5.06-14.37L5.06-14.37Q2.94-10.94 2.94-8.38L2.94-8.38L2.94-8.38Q2.94-5.82 4.35-3.84L4.35-3.84L4.35-3.84Q6.78-0.13 15.30 0.58L15.30 0.58L15.30 0.58Q16.26 0.64 18.30 0.64L18.30 0.64L18.30 0.64Q20.35 0.64 24-0.06L24-0.06L24-0.06Q33.47-1.79 42.56-6.66L42.56-6.66L42.56-6.66Q51.65-11.52 55.94-17.73L55.94-17.73L55.94-17.73Q56.77-18.94 56.77-18.37L56.77-18.37L56.77-18.37Q56.77-18.11 56.64-17.60L56.64-17.60L56.64-17.60Q54.91-12.74 44.93-6.21L44.93-6.21L44.93-6.21Q30.27 3.39 16.64 3.39L16.64 3.39L16.64 3.39Q8.70 3.39 4.10-1.28L4.10-1.28L4.10-1.28Q1.02-4.29 1.02-9.34L1.02-9.34L1.02-9.34Q1.02-13.70 3.26-17.79L3.26-17.79L3.26-17.79Q8.70-28.03 22.14-35.90L22.14-35.90L22.14-35.90Q30.08-40.58 36.42-42.11L36.42-42.11L36.42-42.11Q40.45-42.88 44.10-42.88L44.10-42.88L44.10-42.88Q47.74-42.88 50.43-41.22L50.43-41.22L50.43-41.22Q53.25-39.36 53.25-35.97L53.25-35.97L53.25-35.97Q53.25-33.79 51.97-31.17L51.97-31.17L51.97-31.17Q51.58-30.40 51.46-30.78L51.46-30.78L51.46-30.78Q51.33-31.17 51.68-31.97L51.68-31.97L51.68-31.97Q52.03-32.77 52.03-33.79ZM36.29-19.39L36.29-19.39L36.29-19.39Q36.67-18.94 36.67-18.66L36.67-18.66L36.67-18.66Q36.67-18.37 36.61-18.18L36.61-18.18L36.61-18.18Q36.22-17.66 35.26-18.30L35.26-18.30L35.26-18.30Q33.09-19.90 28.29-19.90L28.29-19.90L28.29-19.90Q22.34-19.90 16.51-18.30L16.51-18.30L16.51-18.30Q14.02-17.60 13.06-17.60L13.06-17.60L13.06-17.60Q11.58-17.60 11.14-18.94L11.14-18.94L11.14-18.94Q11.07-19.01 11.07-19.14L11.07-19.14L11.07-19.14Q11.07-19.84 12.29-20.80L12.29-20.80L12.29-20.80Q13.50-21.76 16.90-22.40L16.90-22.40L16.90-22.40Q19.01-22.91 21.70-22.91L21.70-22.91L21.70-22.91Q24.38-22.91 27.52-22.53L27.52-22.53L27.52-22.53Q34.18-21.70 36.29-19.39ZM71.94-2.94L71.94-2.94L71.94-2.94Q70.72 0.38 70.72 2.50L70.72 2.50L70.72 2.50Q70.72 4.61 71.62 5.70L71.62 5.70L71.62 5.70Q71.81 5.95 71.68 6.05L71.68 6.05L71.68 6.05Q71.55 6.14 71.49 6.14L71.49 6.14L71.49 6.14Q71.42 6.14 71.30 6.08L71.30 6.08L71.30 6.08Q69.25 4.42 69.25 1.12L69.25 1.12L69.25 1.12Q69.25-2.18 70.59-6.46L70.59-6.46L70.59-6.46Q67.97-3.07 65.41-0.90L65.41-0.90L65.41-0.90Q62.34 1.66 59.14 1.66L59.14 1.66L59.14 1.66Q57.09 1.66 55.30 0.29L55.30 0.29L55.30 0.29Q53.50-1.09 53.50-4.22L53.50-4.22L53.50-4.22Q53.44-5.76 54.08-7.74L54.08-7.74L54.08-7.74Q52.80-6.59 52.45-6.34L52.45-6.34L52.45-6.34Q52.10-6.08 51.97-6.34L51.97-6.34L51.97-6.34Q51.84-6.59 51.84-6.82L51.84-6.82L51.84-6.82Q51.84-7.04 52.26-7.39L52.26-7.39L52.26-7.39Q52.67-7.74 56.70-12.10L56.70-12.10L56.70-12.10Q59.07-14.72 62.34-16.19L62.34-16.19L62.34-16.19Q65.60-17.66 68.54-17.66L68.54-17.66L68.54-17.66Q71.23-17.66 72.48-16.74L72.48-16.74L72.48-16.74Q73.73-15.81 73.73-14.40L73.73-14.40L73.73-14.40Q76.03-19.26 78.69-23.65L78.69-23.65L78.69-23.65Q81.34-28.03 82.82-29.70L82.82-29.70L82.82-29.70Q84.42-31.49 86.85-31.49L86.85-31.49L86.85-31.49Q89.28-31.49 90.82-30.14L90.82-30.14L90.82-30.14Q89.47-29.31 85.57-24.64L85.57-24.64L85.57-24.64Q81.66-19.97 77.95-14.62L77.95-14.62L77.95-14.62Q74.24-9.28 71.94-2.94ZM72.45-15.04L72.45-15.04L72.45-15.04Q72.45-16.32 70.85-16.32L70.85-16.32L70.85-16.32Q70.02-16.32 68.67-15.81L68.67-15.81L68.67-15.81Q65.66-14.66 62.72-11.33L62.72-11.33L62.72-11.33Q59.07-7.17 59.07-3.39L59.07-3.39L59.07-3.39Q59.07-1.15 60.54-0.70L60.54-0.70L60.54-0.70Q60.86-0.58 61.18-0.58L61.18-0.58L61.18-0.58Q63.81-0.58 68.99-5.82L68.99-5.82L68.99-5.82Q70.40-7.17 71.36-8.70L71.36-8.70L71.36-8.70Q71.87-10.18 72.70-12.10L72.70-12.10L72.70-12.10Q72.13-11.71 71.78-12L71.78-12L71.78-12Q71.42-12.29 71.94-13.28L71.94-13.28L71.94-13.28Q72.45-14.27 72.45-15.04ZM91.52-19.52L91.52-19.52L91.52-19.52Q90.82-20.10 90.94-21.18L90.94-21.18L90.94-21.18Q91.07-22.27 92.10-23.49L92.10-23.49L92.10-23.49Q93.12-24.70 94.85-24.70L94.85-24.70L94.85-24.70Q95.36-24.70 95.94-24.22L95.94-24.22L95.94-24.22Q96.51-23.74 96.38-22.62L96.38-22.62L96.38-22.62Q96.26-21.50 95.36-20.51L95.36-20.51L95.36-20.51Q94.46-19.52 93.34-19.23L93.34-19.23L93.34-19.23Q92.22-18.94 91.52-19.52ZM90.69-16.13L90.69-16.13L90.69-16.13Q88.06-13.44 86.30-9.31L86.30-9.31L86.30-9.31Q84.54-5.18 84.54-3.52L84.54-3.52L84.54-3.52Q84.54-1.86 85.86-1.86L85.86-1.86L85.86-1.86Q87.17-1.86 90.21-3.78L90.21-3.78L90.21-3.78Q93.25-5.70 97.15-9.22L97.15-9.22L97.15-9.22Q97.98-9.98 97.98-9.02L97.98-9.02L97.98-9.02Q97.98-8.90 97.86-8.77L97.86-8.77L97.86-8.77Q94.78-6.08 92.67-4.35L92.67-4.35L92.67-4.35Q90.56-2.62 87.65-1.06L87.65-1.06L87.65-1.06Q84.74 0.51 82.88 0.51L82.88 0.51L82.88 0.51Q80.58 0.51 79.46-0.51L79.46-0.51L79.46-0.51Q78.34-1.54 78.34-2.75L78.34-2.75L78.34-2.75Q78.34-5.06 79.17-6.40L79.17-6.40L79.17-6.40Q80-7.74 81.98-10.11L81.98-10.11L81.98-10.11Q81.28-9.54 79.78-8.19L79.78-8.19L79.78-8.19Q78.27-6.85 77.70-6.40L77.70-6.40L77.70-6.40Q77.12-5.95 77.12-6.66L77.12-6.66L77.12-6.66Q77.12-7.10 78.14-7.94L78.14-7.94L78.14-7.94Q79.17-8.77 82.59-12.16L82.59-12.16L82.59-12.16Q86.02-15.55 87.26-16.19L87.26-16.19L87.26-16.19Q88.51-16.83 89.31-16.83L89.31-16.83L89.31-16.83Q90.11-16.83 90.50-16.61L90.50-16.61L90.50-16.61Q90.88-16.38 90.69-16.13ZM107.46-21.95L107.46-21.95L107.46-21.95Q108.86-24.06 109.73-25.31L109.73-25.31L109.73-25.31Q110.59-26.56 111.10-27.14L111.10-27.14L111.10-27.14Q111.62-27.71 113.41-28.13L113.41-28.13L113.41-28.13Q115.20-28.54 116.86-28.54L116.86-28.54L116.86-28.54Q118.53-28.54 118.53-28.19L118.53-28.19L118.53-28.19Q118.53-27.84 115.78-25.22L115.78-25.22L115.78-25.22Q113.02-22.59 109.38-18.24L109.38-18.24L109.38-18.24Q113.73-17.54 115.07-15.49L115.07-15.49L115.07-15.49Q115.58-14.59 115.23-14.34L115.23-14.34L115.23-14.34Q114.88-14.08 114.43-14.53L114.43-14.53L114.43-14.53Q113.09-15.87 110.14-15.87L110.14-15.87L110.14-15.87Q108.86-15.87 107.26-15.62L107.26-15.62L107.26-15.62Q102.08-8.96 100.74-4.74L100.74-4.74L100.74-4.74Q100.29-3.52 100.29-2.69L100.29-2.69L100.29-2.69Q100.29-0.45 102.14-0.45L102.14-0.45L102.14-0.45Q104.13-0.45 107.71-3.20L107.71-3.20L107.71-3.20Q112.38-6.72 115.84-10.18L115.84-10.18L115.84-10.18Q116.48-10.88 116.67-10.50L116.67-10.50L116.67-10.50Q116.86-10.11 116.35-9.66L116.35-9.66L116.35-9.66Q110.85-3.90 107.10-1.18L107.10-1.18L107.10-1.18Q103.36 1.54 100.22 1.54L100.22 1.54L100.22 1.54Q95.94 1.54 95.94-3.01L95.94-3.01L95.94-3.01Q95.94-5.18 97.15-8.19L97.15-8.19L96-7.10L96-7.10Q95.49-6.59 95.26-6.82L95.26-6.82L95.26-6.82Q95.04-7.04 95.04-7.23L95.04-7.23L95.04-7.23Q95.04-7.42 95.55-7.87L95.55-7.87L95.55-7.87Q100.22-11.97 101.95-14.08L101.95-14.08L101.95-14.08Q100.74-13.63 100.32-14.02L100.32-14.02L100.32-14.02Q99.90-14.40 99.74-15.04L99.74-15.04L99.74-15.04Q99.58-15.68 100.38-16.61L100.38-16.61L100.38-16.61Q101.18-17.54 102.75-17.95L102.75-17.95L102.75-17.95Q104.32-18.37 105.09-18.43L105.09-18.43L105.09-18.43Q106.05-19.84 107.46-21.95ZM126.66-19.52L126.66-19.52L126.66-19.52Q125.95-20.10 126.08-21.18L126.08-21.18L126.08-21.18Q126.21-22.27 127.23-23.49L127.23-23.49L127.23-23.49Q128.26-24.70 129.98-24.70L129.98-24.70L129.98-24.70Q130.50-24.70 131.07-24.22L131.07-24.22L131.07-24.22Q131.65-23.74 131.52-22.62L131.52-22.62L131.52-22.62Q131.39-21.50 130.50-20.51L130.50-20.51L130.50-20.51Q129.60-19.52 128.48-19.23L128.48-19.23L128.48-19.23Q127.36-18.94 126.66-19.52ZM125.82-16.13L125.82-16.13L125.82-16.13Q123.20-13.44 121.44-9.31L121.44-9.31L121.44-9.31Q119.68-5.18 119.68-3.52L119.68-3.52L119.68-3.52Q119.68-1.86 120.99-1.86L120.99-1.86L120.99-1.86Q122.30-1.86 125.34-3.78L125.34-3.78L125.34-3.78Q128.38-5.70 132.29-9.22L132.29-9.22L132.29-9.22Q133.12-9.98 133.12-9.02L133.12-9.02L133.12-9.02Q133.12-8.90 132.99-8.77L132.99-8.77L132.99-8.77Q129.92-6.08 127.81-4.35L127.81-4.35L127.81-4.35Q125.70-2.62 122.78-1.06L122.78-1.06L122.78-1.06Q119.87 0.51 118.02 0.51L118.02 0.51L118.02 0.51Q115.71 0.51 114.59-0.51L114.59-0.51L114.59-0.51Q113.47-1.54 113.47-2.75L113.47-2.75L113.47-2.75Q113.47-5.06 114.30-6.40L114.30-6.40L114.30-6.40Q115.14-7.74 117.12-10.11L117.12-10.11L117.12-10.11Q116.42-9.54 114.91-8.19L114.91-8.19L114.91-8.19Q113.41-6.85 112.83-6.40L112.83-6.40L112.83-6.40Q112.26-5.95 112.26-6.66L112.26-6.66L112.26-6.66Q112.26-7.10 113.28-7.94L113.28-7.94L113.28-7.94Q114.30-8.77 117.73-12.16L117.73-12.16L117.73-12.16Q121.15-15.55 122.40-16.19L122.40-16.19L122.40-16.19Q123.65-16.83 124.45-16.83L124.45-16.83L124.45-16.83Q125.25-16.83 125.63-16.61L125.63-16.61L125.63-16.61Q126.02-16.38 125.82-16.13ZM154.62-9.86L154.62-9.86L154.62-9.86Q153.92-9.02 153.18-8.06L153.18-8.06L153.18-8.06Q152.45-7.10 151.33-5.44L151.33-5.44L151.33-5.44Q150.21-3.78 150.21-2.62L150.21-2.62L150.21-2.62Q150.21-1.47 151.20-1.47L151.20-1.47L151.20-1.47Q152.19-1.47 154.43-2.69L154.43-2.69L154.43-2.69Q158.91-5.25 164.35-10.37L164.35-10.37L164.35-10.37Q164.99-11.01 165.18-10.56L165.18-10.56L165.18-10.56Q165.18-10.50 165.18-10.30L165.18-10.30L165.18-10.30Q165.18-10.11 164.93-9.86L164.93-9.86L164.93-9.86Q153.92 0.51 148.93 0.51L148.93 0.51L148.93 0.51Q147.46 0.51 146.46-0.48L146.46-0.48L146.46-0.48Q145.47-1.47 145.47-2.82L145.47-2.82L145.47-2.82Q145.47-4.16 146.62-6.91L146.62-6.91L146.62-6.91Q143.74-3.33 140.45-1.38L140.45-1.38L140.45-1.38Q137.15 0.58 135.30 0.58L135.30 0.58L135.30 0.58Q133.44 0.58 132.13-0.54L132.13-0.54L132.13-0.54Q130.82-1.66 130.82-3.33L130.82-3.33L130.82-3.33Q130.82-8.06 135.04-12.61L135.04-12.61L135.04-12.61Q138.24-16 142.98-17.41L142.98-17.41L142.98-17.41Q145.09-18.11 147.10-18.11L147.10-18.11L147.10-18.11Q149.12-18.11 151.01-16.99L151.01-16.99L151.01-16.99Q152.90-15.87 153.41-14.34L153.41-14.34L153.41-14.34Q155.33-14.34 156.16-12.93L156.16-12.93L156.16-12.93Q156.29-12.74 156.29-12.29L156.29-12.29L156.29-12.29Q156.29-11.84 155.81-11.26L155.81-11.26L155.81-11.26Q155.33-10.69 154.62-9.86ZM149.95-16.19L149.95-16.19L149.95-16.19Q148.61-16.19 146.75-15.36L146.75-15.36L146.75-15.36Q143.49-13.95 140.54-10.50L140.54-10.50L140.54-10.50Q135.87-4.99 135.87-2.43L135.87-2.43L135.87-2.43Q135.87-1.09 136.96-1.09L136.96-1.09L136.96-1.09Q137.86-1.09 139.94-2.24L139.94-2.24L139.94-2.24Q142.02-3.39 145.41-6.78L145.41-6.78L145.41-6.78Q145.60-6.98 146.88-8.19L146.88-8.19L146.88-8.19Q148.16-9.41 149.06-10.30L149.06-10.30L149.06-10.30Q152.06-13.44 152.06-14.82L152.06-14.82L152.06-14.82Q152.06-16.19 149.95-16.19Z" fill="url(#editing-glowing-gradient)"></path></g></g><style>text {
  font-size: 64px;
  font-family: Arial Black;
  dominant-baseline: central;
  text-anchor:central;
}</style></svg>