<svg xmlns="http://www.w3.org/2000/svg" version="1.1" xmlns:xlink="http://www.w3.org/1999/xlink" xmlns:svgjs="http://svgjs.dev/svgjs" width="2000" height="2250" viewBox="0 0 2000 2250"><g transform="matrix(1,0,0,1,0.00014687500004129106,0)"><svg viewBox="0 0 320 360" data-background-color="#ffffff" preserveAspectRatio="xMidYMid meet" height="2250" width="2000" xmlns="http://www.w3.org/2000/svg" xmlns:xlink="http://www.w3.org/1999/xlink"><g id="tight-bounds" transform="matrix(1,0,0,1,0.000023499999997511622,0)"><svg viewBox="0 0 320 360" height="360" width="320"><g><svg></svg></g><g><svg viewBox="0 0 320 360" height="360" width="320"><g><path transform="translate(-74.99272,-51.79039) scale(4.65793,4.65793)" d="M20.6 59.9l0.8 1-0.4-1.3c-0.1-0.6-0.8 0.1-0.4 0.3M21.5 59.3c0.3 0.5 0.6 1 0.6 1.5 0 0.7 0.6 1 1.1 1.2-0.7-0.8-1.1-3-1.7-2.7M59.9 16.9c1.7 0 3.3-0.2 5.1 0.2 4.4 1.1 8.1 3.3 10.6 6.4l7 11.2c0.3 2.8 0.9 5.9 0.8 9.3 0.7 0 0.6-1 1.4-1.2-0.8 2-1.2 4.5-1.4 7.4-0.5-1.6 0-4 0.1-5.3-0.7 1.1-1.1 0.3-1.1-0.2 0.1-0.8-0.3-0.7-0.6-1-1.1-1-1.8-2.1-2.6-3.8 0.5-1.3 0.6-3.2-1-4.2-0.5-0.3-1.1-0.8-1.4-1.6-0.4-1.1-1.1-2.4-0.9-4.1 0.1-0.5-1.5 1.1-2.4 0.4-3.9-2.7-7.8-5.8-12.5-8.4-2.5 0-4.3-0.9-5.2-2-0.8-1-0.2-2.3 1-2.4 0.7 0 1.5-0.2 2.1 0.2 0.1-0.4 0.5-0.9 1-0.9M50 14.6l0.2 0.1c1 0.2 1.5 1.6 2.6 1.1 0 0.7 0.1 1.4-0.1 1.9-0.3 0.8-1.2 0.8-1.9 0.8-6.7-0.4-10.6 2.4-14.7 4.8-1.1 0.7-2.3 1.2-3.2 2.1-4.3 4-9 7.7-10.1 15.1l-0.9 8.2c-0.1 0.9-1.1 1.8-0.9 2.9l0.7 4.9c-0.7-0.7-1.1 0.2-0.9 0.6 0.1 0.3 0.5 1.3 1.1 0.4 0.8 1.5 1.6 4.4 2.7 5.7 3.4 4 7.8 7.6 11.4 11.2 0.9-0.2 1.6-0.2 1.8-0.8 0.3 0.6-0.3 1.2-0.8 1.3 1.6 1 3.4 1.9 5.8 2.1 3.1 0.2 6 0.7 8.7 1.4 1.4-0.4 2.8-0.6 4.3-0.7 0.5 0 0.8-0.8 1.4-1l0.1-1c0.6 0.9 0.5-0.3 0.1-0.9 0.7 0.6 0.9 1.1 1.2 1.5 0-0.3 0.8-1.4 0.8-0.1l0.2-1.3c0.3-0.2 0.4 1.1 0.7 0.2 0.3-0.9 0.9-0.2 1.5-0.5-0.2 0.4-0.1 1.2 0.6 0.7l0.8-0.7c0.5 1.2 1.3 0.7 1.7 0.5 4.4-2.8 8.8-6.1 13-9.4l-0.1 1.3 0.5-1.6c0.5 0.5 0.9 0.1 1.1-0.2 0.6-1 1.4-2 2.7-2.9-1.6 4.3-3.5 7.7-5.9 10.5l-1 1.2c0 0.7-0.2 1.6-1 1.7-0.4 0.1-1.2-0.2-1.8 0.4-0.3 0.4 0.7 1.2-0.1 0.6-0.7-0.5-1.4 0-2.2 0.2-0.6 0.2 0.4 0.8 0.6 1.2 0.2 0.4 0.4 0.8 0.3 1.3l-1.1-1.2c-1.3 0.7-2.1 2-3.2 3-0.5 0.4-0.3 1.1-0.3 1.7-0.7 0-1.5-0.2-1.9 0.2-0.3 0.4-0.2 1-0.2 1.6-1-0.1-1.1-1.6-2-1.3-0.9 0.2-1.9 0.3-2.7 0.8 0.6 1.2-1 0.5-0.8 0.7-1.5-0.9-2.8-1.6-4.4-1-3.4-1.1-7.6-0.6-10.7-0.2 0-0.5 0.1-1-0.1-1.1-0.2 0.5-0.8 0.3-0.7 0.3-1.9-1.3-3.8-2.1-5.8-3.2-1.8 0.2-3.5-0.7-4-1.2-1.4-1.3-3-0.6-4.3-0.9-2.8-0.7-3.8-3.6-4.1-5.6-0.2-1-1-1.4-1.3-1.3-1.3-4.2-3.3-8-4.9-11.9-0.4-1-0.3-2-0.3-3.1 0.5 0.2 1 0.1 0.9-0.6-0.5-3.3-1.7-5.8-3-8.2 0.7-3.4 0.8-7.4 2.4-10.4 1.4-2.7 4-4.1 5.8-6.4 0.6-0.8 0.6-1.9 1.2-2.6 2-2 4-4.1 6.2-5.9 1-0.8 2.2 0 3.7-0.3 0.5-1.8 2.5-3.4 4.4-2.9 0.8 0.2 2.4-1.9 2.9-2.1 0.8-0.3 0.4 0.8 0.4 1.5 1.9-1.5 4.5-2.3 6.9-3.2" fill="#006f42" fill-rule="nonzero" stroke="none" stroke-width="1" stroke-linecap="butt" stroke-linejoin="miter" stroke-miterlimit="10" stroke-dasharray="" stroke-dashoffset="0" font-family="none" font-weight="none" font-size="none" text-anchor="none" style="mix-blend-mode: normal" data-fill-palette-color="tertiary"></path></g><g transform="matrix(1,0,0,1,64,98.64451445544458)"><svg viewBox="0 0 192 162.71097108911084" height="162.71097108911084" width="192"><g><svg viewBox="0 0 192 162.71097108911084" height="162.71097108911084" width="192"><g><svg viewBox="0 0 192 162.71097108911084" height="162.71097108911084" width="192"><g transform="matrix(1,0,0,1,0,97.01239289005872)"><svg viewBox="0 0 192 65.69857819905214" height="65.69857819905214" width="192"><g id="textblocktransform"><svg viewBox="0 0 192 65.69857819905214" height="65.69857819905214" width="192" id="textblock"><g><svg viewBox="0 0 192 65.69857819905214" height="65.69857819905214" width="192"><g transform="matrix(1,0,0,1,0,0)"><svg width="192" viewBox="1.75 -35.3 105.49 36.099999999999994" height="65.69857819905214" data-palette-color="#006f42"><path d="M20.25-11.25L3.2-11.25 3.2-14.5 20.25-14.5 20.25-11.25ZM11.2 0.8L10.95 0.8 10.95-3.15 11.2-3.15 11.2 0.8ZM6.3-8.95L1.75-8.95 1.75-16.3 6.3-16.3 6.3-8.95ZM20.25-14.5L15.7-14.5 15.7-17.1 20.25-17.1 20.25-14.5ZM20.25-17.1L20.25-17.1 15.7-17.1Q15.7-19.3 14.38-20.7 13.05-22.1 10.95-22.1L10.95-22.1 10.95-26Q13.65-26 15.73-24.85 17.8-23.7 19.03-21.68 20.25-19.65 20.25-17.1ZM15.9-7.5L15.9-7.5 20.15-6.65Q19.85-4.5 18.6-2.8 17.35-1.1 15.45-0.15 13.55 0.8 11.2 0.8L11.2 0.8 11.2-3.15Q13-3.15 14.33-4.23 15.65-5.3 15.9-7.5ZM6.3-16.25L1.75-16.25Q1.75-19.1 2.98-21.28 4.2-23.45 6.28-24.73 8.35-26 11-26L11-26 11-22.1Q8.8-22.1 7.55-20.58 6.3-19.05 6.3-16.25L6.3-16.25ZM1.75-8.95L1.75-8.95 6.3-8.95Q6.3-6.2 7.55-4.67 8.8-3.15 11-3.15L11-3.15 11 0.8Q8.35 0.8 6.28-0.48 4.2-1.75 2.98-3.95 1.75-6.15 1.75-8.95ZM42.75-35.25L42.75-25.2 38.2-25.2 38.2-35.25 42.75-35.25ZM42.75 0L38.2 0 38.2-25.25 42.75-25.25 42.75 0ZM28.7-8.05L24.15-8.05 24.15-17.2 28.7-17.2 28.7-8.05ZM28.7-17.2L28.7-17.2 24.15-17.2Q24.15-19.7 25.2-21.7 26.25-23.7 28.07-24.85 29.9-26 32.25-26L32.25-26 33.4-21.95Q31.35-21.95 30.02-20.63 28.7-19.3 28.7-17.2ZM40.2-17.1L40.2-17.1 38.2-17.1Q38.2-19.25 36.85-20.6 35.5-21.95 33.4-21.95L33.4-21.95 32.25-26Q34.5-26 36.32-24.85 38.15-23.7 39.17-21.68 40.2-19.65 40.2-17.1ZM24.15-8.05L28.7-8.05Q28.7-5.95 30.02-4.63 31.35-3.3 33.4-3.3L33.4-3.3 32.25 0.75Q29.9 0.75 28.07-0.4 26.25-1.55 25.2-3.55 24.15-5.55 24.15-8.05L24.15-8.05ZM38.2-8.2L40.2-8.2Q40.2-5.65 39.17-3.63 38.15-1.6 36.32-0.43 34.5 0.75 32.25 0.75L32.25 0.75 33.4-3.3Q35.5-3.3 36.85-4.65 38.2-6 38.2-8.2L38.2-8.2ZM53.8 0L49.25 0 49.25-25.25 53.8-25.25 53.8 0ZM51.5-28.6L51.5-28.6Q50.25-28.6 49.4-29.45 48.55-30.3 48.55-31.55L48.55-31.55Q48.55-32.8 49.4-33.68 50.25-34.55 51.5-34.55L51.5-34.55Q52.75-34.55 53.62-33.68 54.5-32.8 54.5-31.55L54.5-31.55Q54.5-30.3 53.62-29.45 52.75-28.6 51.5-28.6ZM66.49-7.65L61.94-7.65 61.94-35.3 66.49-35.25 66.49-7.65ZM72.79-21.5L59.04-21.5 59.04-25.25 72.79-25.25 72.79-21.5ZM61.94-7.7L61.94-7.7 66.49-7.7Q66.49-6.25 66.89-5.25 67.29-4.25 68.04-3.73 68.79-3.2 69.84-3.2L69.84-3.2 69.44 0.75Q65.94 0.75 63.94-1.48 61.94-3.7 61.94-7.7ZM72.19-4.05L72.19-4.05 73.99-0.8Q72.99-0.05 71.82 0.35 70.64 0.75 69.44 0.75L69.44 0.75 69.84-3.2Q70.49-3.2 71.07-3.43 71.64-3.65 72.19-4.05ZM82.79 0L78.24 0 78.24-25.25 82.79-25.25 82.79 0ZM80.49-28.6L80.49-28.6Q79.24-28.6 78.39-29.45 77.54-30.3 77.54-31.55L77.54-31.55Q77.54-32.8 78.39-33.68 79.24-34.55 80.49-34.55L80.49-34.55Q81.74-34.55 82.62-33.68 83.49-32.8 83.49-31.55L83.49-31.55Q83.49-30.3 82.62-29.45 81.74-28.6 80.49-28.6ZM107.24 0L102.69 0 102.69-17.2 107.24-17.2 107.24 0ZM96.59 0.75L96.59 0.75 96.94-3Q98.74-3 100.01-3.9 101.29-4.8 101.99-6.55 102.69-8.3 102.69-10.7L102.69-10.7 104.94-10.8Q104.94-7.4 103.84-4.8 102.74-2.2 100.86-0.73 98.99 0.75 96.59 0.75ZM96.94-3L96.59 0.75Q94.34 0.75 92.49-0.3 90.64-1.35 89.54-3.18 88.44-5 88.44-7.25L88.44-7.25 92.74-7.4Q92.74-5.5 94.01-4.25 95.29-3 96.94-3L96.94-3ZM92.74-7.4L88.44-7.25Q88.44-9.6 89.61-11.38 90.79-13.15 92.79-14.2 94.79-15.25 97.34-15.25L97.34-15.25 97.59-11.75Q95.49-11.75 94.11-10.53 92.74-9.3 92.74-7.4L92.74-7.4ZM105.04-11.75L97.59-11.75 97.34-15.25 105.04-15.25 105.04-11.75ZM104.94-10.8L102.69-10.7 102.69-17.15 104.94-17.15 104.94-10.8ZM107.24-17.1L107.24-17.1 102.69-17.1Q102.69-19.3 101.36-20.7 100.04-22.1 97.94-22.1L97.94-22.1 97.94-26Q100.64-26 102.71-24.85 104.79-23.7 106.01-21.68 107.24-19.65 107.24-17.1ZM93.24-17.7L93.24-17.7 89.04-18.55Q89.34-20.8 90.56-22.45 91.79-24.1 93.71-25.05 95.64-26 97.99-26L97.99-26 97.99-22.1Q96.14-22.1 94.81-21.03 93.49-19.95 93.24-17.7Z" opacity="1" transform="matrix(1,0,0,1,0,0)" fill="#006f42" class="wordmark-text-0" data-fill-palette-color="primary" id="text-0"></path></svg></g></svg></g></svg></g></svg></g><g transform="matrix(1,0,0,1,36.672,0)"><svg viewBox="0 0 118.656 87.42539356494024" height="87.42539356494024" width="118.656"><g><svg xmlns="http://www.w3.org/2000/svg" xml:space="preserve" viewBox="5 2.1329999999999996 89.9990002350455 66.311" x="0" y="0" height="87.42539356494024" width="118.656" class="icon-icon-0" data-fill-palette-color="accent" id="icon-0"><path d="M85.591 18.414H68.595c-0.148 0-0.234 0.052-0.246 0.065l0.045 6.674c0.021-0.035 0.097-0.007 0.205-0.007h16.997c0.15 0 0.236-0.053 0.247-0.065l-0.048-6.675c-0.022 0.039-0.097 0.009-0.204 0.008M50 30.117c-5.546 0-10.061 4.514-10.061 10.06 0 5.548 4.515 10.06 10.061 10.06s10.061-4.512 10.061-10.06c0-5.546-4.515-10.06-10.061-10.06" fill="#111111" data-fill-palette-color="accent"></path><path d="M87.889 8.963H45.121l0.002-0.032v-3.68c0-1.721-1.168-3.118-2.613-3.118H22.829c-1.443 0-2.611 1.396-2.611 3.118v3.68l0.002 0.032h-8.106C8.191 8.963 5 12.228 5 16.242v44.923c0 4.012 3.19 7.279 7.113 7.279h75.775c3.921 0 7.111-3.268 7.111-7.279V16.242c0.001-4.014-3.189-7.279-7.11-7.279m-65.06 55.319H12.111c-1.63 0-2.95-1.397-2.95-3.117V16.242c0-1.721 1.32-3.118 2.95-3.118h10.716c-1.444 0-2.611 1.396-2.611 3.118v44.923c0.001 1.72 1.169 3.117 2.613 3.117m5.886-39.837a2.774 2.774 0 0 1-2.775-2.775 2.777 2.777 0 0 1 2.775-2.776 2.78 2.78 0 0 1 2.776 2.776 2.78 2.78 0 0 1-2.776 2.775M50 54.396c-7.842 0-14.221-6.381-14.221-14.221 0-7.842 6.379-14.224 14.221-14.224s14.221 6.38 14.221 14.224c0 7.842-6.379 14.221-14.221 14.221m37.353-29.169c0 0.83-0.773 1.48-1.762 1.48H68.595c-0.988 0-1.762-0.65-1.762-1.48v-6.895c0-0.829 0.773-1.479 1.762-1.479h16.996c0.989 0 1.763 0.65 1.763 1.479z" fill="#111111" data-fill-palette-color="accent"></path></svg></g></svg></g><g></g></svg></g></svg></g></svg></g></svg></g><defs></defs></svg><rect width="320" height="360" fill="none" stroke="none" visibility="hidden"></rect></g></svg></g></svg>