<svg xmlns="http://www.w3.org/2000/svg" version="1.1" xmlns:xlink="http://www.w3.org/1999/xlink" xmlns:svgjs="http://svgjs.dev/svgjs" width="128" height="128" viewBox="0 0 128 128"><g transform="matrix(0.44782608695652176,0,0,0.44782608695652176,35.339226276730436,12.5)"><svg viewBox="0 0 125 225" data-background-color="#ffffff" preserveAspectRatio="xMidYMid meet" height="230" width="128" xmlns="http://www.w3.org/2000/svg" xmlns:xlink="http://www.w3.org/1999/xlink"><g id="tight-bounds" transform="matrix(1,0,0,1,-0.00020899999999812735,0)"><svg viewBox="0 0 125 225" height="225" width="125"><g><svg></svg></g><g><svg viewBox="0 0 125 225" height="225" width="125"><g><path transform="translate(-29.29403,21.95688) scale(1.81951,1.81951)" d="M20.6 59.9l0.8 1-0.4-1.3c-0.1-0.6-0.8 0.1-0.4 0.3M21.5 59.3c0.3 0.5 0.6 1 0.6 1.5 0 0.7 0.6 1 1.1 1.2-0.7-0.8-1.1-3-1.7-2.7M59.9 16.9c1.7 0 3.3-0.2 5.1 0.2 4.4 1.1 8.1 3.3 10.6 6.4l7 11.2c0.3 2.8 0.9 5.9 0.8 9.3 0.7 0 0.6-1 1.4-1.2-0.8 2-1.2 4.5-1.4 7.4-0.5-1.6 0-4 0.1-5.3-0.7 1.1-1.1 0.3-1.1-0.2 0.1-0.8-0.3-0.7-0.6-1-1.1-1-1.8-2.1-2.6-3.8 0.5-1.3 0.6-3.2-1-4.2-0.5-0.3-1.1-0.8-1.4-1.6-0.4-1.1-1.1-2.4-0.9-4.1 0.1-0.5-1.5 1.1-2.4 0.4-3.9-2.7-7.8-5.8-12.5-8.4-2.5 0-4.3-0.9-5.2-2-0.8-1-0.2-2.3 1-2.4 0.7 0 1.5-0.2 2.1 0.2 0.1-0.4 0.5-0.9 1-0.9M50 14.6l0.2 0.1c1 0.2 1.5 1.6 2.6 1.1 0 0.7 0.1 1.4-0.1 1.9-0.3 0.8-1.2 0.8-1.9 0.8-6.7-0.4-10.6 2.4-14.7 4.8-1.1 0.7-2.3 1.2-3.2 2.1-4.3 4-9 7.7-10.1 15.1l-0.9 8.2c-0.1 0.9-1.1 1.8-0.9 2.9l0.7 4.9c-0.7-0.7-1.1 0.2-0.9 0.6 0.1 0.3 0.5 1.3 1.1 0.4 0.8 1.5 1.6 4.4 2.7 5.7 3.4 4 7.8 7.6 11.4 11.2 0.9-0.2 1.6-0.2 1.8-0.8 0.3 0.6-0.3 1.2-0.8 1.3 1.6 1 3.4 1.9 5.8 2.1 3.1 0.2 6 0.7 8.7 1.4 1.4-0.4 2.8-0.6 4.3-0.7 0.5 0 0.8-0.8 1.4-1l0.1-1c0.6 0.9 0.5-0.3 0.1-0.9 0.7 0.6 0.9 1.1 1.2 1.5 0-0.3 0.8-1.4 0.8-0.1l0.2-1.3c0.3-0.2 0.4 1.1 0.7 0.2 0.3-0.9 0.9-0.2 1.5-0.5-0.2 0.4-0.1 1.2 0.6 0.7l0.8-0.7c0.5 1.2 1.3 0.7 1.7 0.5 4.4-2.8 8.8-6.1 13-9.4l-0.1 1.3 0.5-1.6c0.5 0.5 0.9 0.1 1.1-0.2 0.6-1 1.4-2 2.7-2.9-1.6 4.3-3.5 7.7-5.9 10.5l-1 1.2c0 0.7-0.2 1.6-1 1.7-0.4 0.1-1.2-0.2-1.8 0.4-0.3 0.4 0.7 1.2-0.1 0.6-0.7-0.5-1.4 0-2.2 0.2-0.6 0.2 0.4 0.8 0.6 1.2 0.2 0.4 0.4 0.8 0.3 1.3l-1.1-1.2c-1.3 0.7-2.1 2-3.2 3-0.5 0.4-0.3 1.1-0.3 1.7-0.7 0-1.5-0.2-1.9 0.2-0.3 0.4-0.2 1-0.2 1.6-1-0.1-1.1-1.6-2-1.3-0.9 0.2-1.9 0.3-2.7 0.8 0.6 1.2-1 0.5-0.8 0.7-1.5-0.9-2.8-1.6-4.4-1-3.4-1.1-7.6-0.6-10.7-0.2 0-0.5 0.1-1-0.1-1.1-0.2 0.5-0.8 0.3-0.7 0.3-1.9-1.3-3.8-2.1-5.8-3.2-1.8 0.2-3.5-0.7-4-1.2-1.4-1.3-3-0.6-4.3-0.9-2.8-0.7-3.8-3.6-4.1-5.6-0.2-1-1-1.4-1.3-1.3-1.3-4.2-3.3-8-4.9-11.9-0.4-1-0.3-2-0.3-3.1 0.5 0.2 1 0.1 0.9-0.6-0.5-3.3-1.7-5.8-3-8.2 0.7-3.4 0.8-7.4 2.4-10.4 1.4-2.7 4-4.1 5.8-6.4 0.6-0.8 0.6-1.9 1.2-2.6 2-2 4-4.1 6.2-5.9 1-0.8 2.2 0 3.7-0.3 0.5-1.8 2.5-3.4 4.4-2.9 0.8 0.2 2.4-1.9 2.9-2.1 0.8-0.3 0.4 0.8 0.4 1.5 1.9-1.5 4.5-2.3 6.9-3.2" fill="#006f42" fill-rule="nonzero" stroke="none" stroke-width="1" stroke-linecap="butt" stroke-linejoin="miter" stroke-miterlimit="10" stroke-dasharray="" stroke-dashoffset="0" font-family="none" font-weight="none" font-size="none" text-anchor="none" style="mix-blend-mode: normal" data-fill-palette-color="tertiary"></path></g><g transform="matrix(1,0,0,1,48.17785,101.94748179235683)"><svg viewBox="0 0 28.644300000000005 21.105036415286353" height="21.105036415286353" width="28.644300000000005"><g><svg viewBox="0 0 28.644300000000005 21.105036415286353" height="21.105036415286353" width="28.644300000000005"><g><svg viewBox="0 0 28.644300000000005 21.105036415286353" height="21.105036415286353" width="28.644300000000005"><g id="textblocktransform"><svg viewBox="0 0 28.644300000000005 21.105036415286353" height="21.105036415286353" width="28.644300000000005" id="textblock"><g><svg viewBox="0 0 28.644300000000005 21.105036415286353" height="21.105036415286353" width="28.644300000000005"><g><svg viewBox="0 0 28.644300000000005 21.105036415286353" height="21.105036415286353" width="28.644300000000005"><g><svg xmlns="http://www.w3.org/2000/svg" xml:space="preserve" viewBox="5 2.1329999999999996 89.9990002350455 66.311" x="0" y="0" height="21.105036415286353" width="28.644300000000005" class="icon-icon-0" data-fill-palette-color="accent" id="icon-0"><path d="M85.591 18.414H68.595c-0.148 0-0.234 0.052-0.246 0.065l0.045 6.674c0.021-0.035 0.097-0.007 0.205-0.007h16.997c0.15 0 0.236-0.053 0.247-0.065l-0.048-6.675c-0.022 0.039-0.097 0.009-0.204 0.008M50 30.117c-5.546 0-10.061 4.514-10.061 10.06 0 5.548 4.515 10.06 10.061 10.06s10.061-4.512 10.061-10.06c0-5.546-4.515-10.06-10.061-10.06" fill="#111111" data-fill-palette-color="accent"></path><path d="M87.889 8.963H45.121l0.002-0.032v-3.68c0-1.721-1.168-3.118-2.613-3.118H22.829c-1.443 0-2.611 1.396-2.611 3.118v3.68l0.002 0.032h-8.106C8.191 8.963 5 12.228 5 16.242v44.923c0 4.012 3.19 7.279 7.113 7.279h75.775c3.921 0 7.111-3.268 7.111-7.279V16.242c0.001-4.014-3.189-7.279-7.11-7.279m-65.06 55.319H12.111c-1.63 0-2.95-1.397-2.95-3.117V16.242c0-1.721 1.32-3.118 2.95-3.118h10.716c-1.444 0-2.611 1.396-2.611 3.118v44.923c0.001 1.72 1.169 3.117 2.613 3.117m5.886-39.837a2.774 2.774 0 0 1-2.775-2.775 2.777 2.777 0 0 1 2.775-2.776 2.78 2.78 0 0 1 2.776 2.776 2.78 2.78 0 0 1-2.776 2.775M50 54.396c-7.842 0-14.221-6.381-14.221-14.221 0-7.842 6.379-14.224 14.221-14.224s14.221 6.38 14.221 14.224c0 7.842-6.379 14.221-14.221 14.221m37.353-29.169c0 0.83-0.773 1.48-1.762 1.48H68.595c-0.988 0-1.762-0.65-1.762-1.48v-6.895c0-0.829 0.773-1.479 1.762-1.479h16.996c0.989 0 1.763 0.65 1.763 1.479z" fill="#111111" data-fill-palette-color="accent"></path></svg></g></svg></g></svg></g></svg></g></svg></g><g></g></svg></g></svg></g></svg></g><defs></defs></svg><rect width="125" height="225" fill="none" stroke="none" visibility="hidden"></rect></g></svg></g></svg>